<svg xmlns="http://www.w3.org/2000/svg" width="1200" height="630" viewBox="0 0 1200 630" role="img" aria-label="Nalin Homes social preview">
  <defs>
    <linearGradient id="bg" x1="0" y1="0" x2="1" y2="1">
      <stop offset="0%" stop-color="#102449" />
      <stop offset="100%" stop-color="#08162e" />
    </linearGradient>
    <linearGradient id="accent" x1="0" y1="0" x2="1" y2="0">
      <stop offset="0%" stop-color="#f59e0b" />
      <stop offset="100%" stop-color="#fbbf24" />
    </linearGradient>
  </defs>

  <rect width="1200" height="630" fill="url(#bg)" />
  <circle cx="980" cy="120" r="160" fill="#1e3a8a" opacity="0.35" />
  <circle cx="1140" cy="520" r="210" fill="#0ea5e9" opacity="0.22" />

  <text x="72" y="110" fill="#f8fafc" font-family="Arial, Helvetica, sans-serif" font-size="34" font-weight="700">Nalin Homes</text>
  <text x="72" y="150" fill="#cbd5e1" font-family="Arial, Helvetica, sans-serif" font-size="24">Toronto Realtor</text>

  <text x="72" y="255" fill="#ffffff" font-family="Arial, Helvetica, sans-serif" font-size="76" font-weight="700">Buying Your First</text>
  <text x="72" y="335" fill="#ffffff" font-family="Arial, Helvetica, sans-serif" font-size="76" font-weight="700">Home in Toronto?</text>
  <text x="72" y="395" fill="#e2e8f0" font-family="Arial, Helvetica, sans-serif" font-size="36">Clear, proven guidance from search to closing.</text>

  <rect x="72" y="438" width="360" height="78" rx="14" fill="url(#accent)" />
  <text x="252" y="488" text-anchor="middle" fill="#0f172a" font-family="Arial, Helvetica, sans-serif" font-size="34" font-weight="700">Book a Discovery Call</text>

  <rect x="740" y="178" width="390" height="250" rx="24" fill="#0f172a" stroke="#93c5fd" stroke-opacity="0.45" />
  <path d="M812 378V236h98c62 0 104 26 104 71 0 46-41 71-104 71z" fill="#1d4ed8" opacity="0.55" />
  <circle cx="920" cy="302" r="54" fill="#f59e0b" />
  <path d="M905 278l39 24-39 24z" fill="#0f172a" />
</svg>
