<?xml version="1.0" encoding="UTF-8" standalone="no"?>
<!-- Generator: Adobe Illustrator 21.0.2, SVG Export Plug-In . SVG Version: 6.00 Build 0)  -->

<svg
   version="1.1"
   id="Layer_1"
   x="0px"
   y="0px"
   viewBox="0 0 340.39999 125.2"
   xml:space="preserve"
   sodipodi:docname="rlp_crec_logo_en.svg"
   inkscape:version="1.1.1 (3bf5ae0d25, 2021-09-20)"
   width="340.39999"
   height="125.2"
   xmlns:inkscape="http://www.inkscape.org/namespaces/inkscape"
   xmlns:sodipodi="http://sodipodi.sourceforge.net/DTD/sodipodi-0.dtd"
   xmlns:xlink="http://www.w3.org/1999/xlink"
   xmlns="http://www.w3.org/2000/svg"
   xmlns:svg="http://www.w3.org/2000/svg"><defs
     id="defs195"><defs
       id="defs7"><rect
         id="SVGID_1_"
         y="0.5"
         width="340.39999"
         height="125.2"
         x="0" /></defs><clipPath
       id="SVGID_2_">
			<use
   xlink:href="#SVGID_1_"
   style="overflow:visible"
   id="use9"
   x="0"
   y="0"
   width="100%"
   height="100%" />
		</clipPath></defs><sodipodi:namedview
     id="namedview193"
     pagecolor="#ffffff"
     bordercolor="#666666"
     borderopacity="1.0"
     inkscape:pageshadow="2"
     inkscape:pageopacity="0.0"
     inkscape:pagecheckerboard="0"
     showgrid="false"
     inkscape:zoom="2.421097"
     inkscape:cx="191.85518"
     inkscape:cy="60.096725"
     inkscape:window-width="1920"
     inkscape:window-height="1017"
     inkscape:window-x="-8"
     inkscape:window-y="-8"
     inkscape:window-maximized="1"
     inkscape:current-layer="Layer_1"
     fit-margin-top="0"
     fit-margin-left="0"
     fit-margin-right="0"
     fit-margin-bottom="0" /><style
     type="text/css"
     id="style2">
	.st0{fill:#FFFFFF;}
	.st1{clip-path:url(#SVGID_2_);fill:#FFFFFF;}
	.st2{clip-path:url(#SVGID_2_);}
	.st3{clip-path:url(#SVGID_2_);fill:#FB000B;}
	.st4{fill:#FB000B;}
</style><path
     class="st2"
     d="m 26.1,48.6 c 6,0 9.5,4 9.5,8.3 0,3.2 -1.7,5.6 -5,7.1 3,1.5 3.9,5.1 8,13.6 h -8 C 27.5,71.4 26.3,65.8 22.4,65.8 h -2.1 v 11.8 h -7.2 v -29 z m -5.8,12 h 3.8 c 2,0 4,-0.9 4,-3.3 C 28.1,55.1 26.7,54 24,54 h -3.7 z"
     clip-path="url(#SVGID_2_)"
     id="path14"
     transform="translate(0,-0.5)" /><path
     class="st2"
     d="m 56.5,78.1 c -10.6,0 -16.6,-7.5 -16.6,-14.9 0,-7 5.7,-14.9 16.6,-14.9 10.9,0 16.6,7.9 16.6,14.9 0,7.4 -6.2,14.9 -16.6,14.9 m 0,-23.8 c -5.5,0 -9.2,3.5 -9.2,8.9 0,5.3 3.7,8.9 9.2,8.9 5.5,0 9.2,-3.5 9.2,-8.9 0,-5.4 -3.7,-8.9 -9.2,-8.9"
     clip-path="url(#SVGID_2_)"
     id="path16"
     transform="translate(0,-0.5)" /><polygon
     class="st2"
     points="90.2,64.1 90.2,77.7 82.9,77.7 82.9,64.1 71.5,48.6 80.3,48.6 86.6,57.7 92.9,48.6 101.6,48.6 "
     clip-path="url(#SVGID_2_)"
     id="polygon18"
     transform="translate(0,-0.5)" /><path
     class="st2"
     d="m 129.5,77.7 h -7.8 L 119.3,72 h -13 l -2.2,5.7 h -7.7 l 11.7,-29 h 8.4 z m -17,-22.1 -4.3,11.3 h 8.9 z"
     clip-path="url(#SVGID_2_)"
     id="path20"
     transform="translate(0,-0.5)" /><polygon
     class="st2"
     points="155.9,77.7 133.8,77.7 133.8,48.6 141,48.6 141,72.3 155.9,72.3 "
     clip-path="url(#SVGID_2_)"
     id="polygon22"
     transform="translate(0,-0.5)" /><polygon
     class="st2"
     points="190.9,77.7 168.8,77.7 168.8,48.6 176,48.6 176,72.3 190.9,72.3 "
     clip-path="url(#SVGID_2_)"
     id="polygon24"
     transform="translate(0,-0.5)" /><polygon
     class="st2"
     points="201.3,63.7 211.8,63.7 211.8,67.9 201.3,67.9 201.3,73.4 212.6,73.4 212.6,77.7 195.6,77.7 195.6,54.6 212.4,54.6 212.4,58.9 201.3,58.9 "
     clip-path="url(#SVGID_2_)"
     id="polygon26"
     transform="translate(0,-0.5)" /><path
     class="st2"
     d="m 230.9,48.6 c 6.6,0 9.6,4.6 9.6,8.6 0,4.1 -2.9,8.8 -9.6,8.8 h -5.7 V 77.7 H 218 v -29 h 12.9 z m -5.7,12.1 h 3.4 c 3.3,0 4.5,-1.2 4.5,-3.4 0,-2.5 -1.4,-3.4 -5.3,-3.4 h -2.6 z"
     clip-path="url(#SVGID_2_)"
     id="path28"
     transform="translate(0,-0.5)" /><path
     class="st2"
     d="m 271.1,77.7 h -7.8 L 260.9,72 h -13 l -2.2,5.7 H 238 l 11.7,-29 h 8.4 z m -17,-22.1 -4.3,11.3 h 8.9 z"
     clip-path="url(#SVGID_2_)"
     id="path30"
     transform="translate(0,-0.5)" /><path
     class="st2"
     d="m 299.9,57 c -3.7,-1.8 -7.3,-2.7 -10.9,-2.7 -7.9,0 -10.6,4.9 -10.6,9.2 0,5.2 4,8.6 10,8.6 1.8,0 2.7,-0.2 4.8,-1 V 67.7 H 289 v -5.3 h 11.5 v 11.9 c -2.2,2.3 -7.5,3.9 -12.2,3.9 -10.1,0 -17.3,-6.2 -17.3,-14.9 0,-8.9 7.2,-14.9 17.5,-14.9 4.3,0 8.6,1 11.5,2.4 V 57 Z"
     clip-path="url(#SVGID_2_)"
     id="path32"
     transform="translate(0,-0.5)" /><polygon
     class="st2"
     points="313.1,60 326.4,60 326.4,65.4 313.1,65.4 313.1,72.3 327.3,72.3 327.3,77.7 305.9,77.7 305.9,48.6 327.3,48.6 327.3,53.9 313.1,53.9 "
     clip-path="url(#SVGID_2_)"
     id="polygon34"
     transform="translate(0,-0.5)" /><rect
     x="13.1"
     y="13.6"
     class="st3"
     width="153.89999"
     height="23"
     clip-path="url(#SVGID_2_)"
     id="rect36"
     transform="translate(0,-0.5)" /><rect
     x="324.39999"
     y="13.6"
     class="st2"
     width="2.9000001"
     height="23"
     clip-path="url(#SVGID_2_)"
     id="rect38"
     transform="translate(0,-0.5)" /><rect
     x="174.7"
     y="13.6"
     class="st2"
     width="2.9000001"
     height="23"
     clip-path="url(#SVGID_2_)"
     id="rect40"
     transform="translate(0,-0.5)" /><rect
     x="181.8"
     y="13.6"
     class="st2"
     width="2.9000001"
     height="23"
     clip-path="url(#SVGID_2_)"
     id="rect42"
     transform="translate(0,-0.5)" /><rect
     x="188.89999"
     y="13.6"
     class="st2"
     width="2.9000001"
     height="23"
     clip-path="url(#SVGID_2_)"
     id="rect44"
     transform="translate(0,-0.5)" /><rect
     x="196.10001"
     y="13.6"
     class="st2"
     width="2.9000001"
     height="23"
     clip-path="url(#SVGID_2_)"
     id="rect46"
     transform="translate(0,-0.5)" /><rect
     x="203.2"
     y="13.6"
     class="st2"
     width="2.9000001"
     height="23"
     clip-path="url(#SVGID_2_)"
     id="rect48"
     transform="translate(0,-0.5)" /><rect
     x="210.3"
     y="13.6"
     class="st2"
     width="2.9000001"
     height="23"
     clip-path="url(#SVGID_2_)"
     id="rect50"
     transform="translate(0,-0.5)" /><rect
     x="217.5"
     y="13.6"
     class="st2"
     width="2.9000001"
     height="23"
     clip-path="url(#SVGID_2_)"
     id="rect52"
     transform="translate(0,-0.5)" /><rect
     x="224.60001"
     y="13.6"
     class="st2"
     width="2.9000001"
     height="23"
     clip-path="url(#SVGID_2_)"
     id="rect54"
     transform="translate(0,-0.5)" /><rect
     x="231.7"
     y="13.6"
     class="st2"
     width="2.9000001"
     height="23"
     clip-path="url(#SVGID_2_)"
     id="rect56"
     transform="translate(0,-0.5)" /><rect
     x="238.8"
     y="13.6"
     class="st2"
     width="2.9000001"
     height="23"
     clip-path="url(#SVGID_2_)"
     id="rect58"
     transform="translate(0,-0.5)" /><rect
     x="246"
     y="13.6"
     class="st2"
     width="2.9000001"
     height="23"
     clip-path="url(#SVGID_2_)"
     id="rect60"
     transform="translate(0,-0.5)" /><rect
     x="253.10001"
     y="13.6"
     class="st2"
     width="2.9000001"
     height="23"
     clip-path="url(#SVGID_2_)"
     id="rect62"
     transform="translate(0,-0.5)" /><rect
     x="260.20001"
     y="13.6"
     class="st2"
     width="2.9000001"
     height="23"
     clip-path="url(#SVGID_2_)"
     id="rect64"
     transform="translate(0,-0.5)" /><rect
     x="267.39999"
     y="13.6"
     class="st2"
     width="2.9000001"
     height="23"
     clip-path="url(#SVGID_2_)"
     id="rect66"
     transform="translate(0,-0.5)" /><rect
     x="274.5"
     y="13.6"
     class="st2"
     width="2.9000001"
     height="23"
     clip-path="url(#SVGID_2_)"
     id="rect68"
     transform="translate(0,-0.5)" /><rect
     x="281.60001"
     y="13.6"
     class="st2"
     width="2.9000001"
     height="23"
     clip-path="url(#SVGID_2_)"
     id="rect70"
     transform="translate(0,-0.5)" /><rect
     x="288.79999"
     y="13.6"
     class="st2"
     width="2.9000001"
     height="23"
     clip-path="url(#SVGID_2_)"
     id="rect72"
     transform="translate(0,-0.5)" /><rect
     x="295.89999"
     y="13.6"
     class="st2"
     width="2.9000001"
     height="23"
     clip-path="url(#SVGID_2_)"
     id="rect74"
     transform="translate(0,-0.5)" /><rect
     x="303"
     y="13.6"
     class="st2"
     width="2.9000001"
     height="23"
     clip-path="url(#SVGID_2_)"
     id="rect76"
     transform="translate(0,-0.5)" /><rect
     x="310.10001"
     y="13.6"
     class="st2"
     width="2.9000001"
     height="23"
     clip-path="url(#SVGID_2_)"
     id="rect78"
     transform="translate(0,-0.5)" /><rect
     x="317.29999"
     y="13.6"
     class="st2"
     width="2.9000001"
     height="23"
     clip-path="url(#SVGID_2_)"
     id="rect80"
     transform="translate(0,-0.5)" /><rect
     x="13.1"
     y="89.599998"
     class="st3"
     width="153.89999"
     height="23"
     clip-path="url(#SVGID_2_)"
     id="rect82"
     transform="translate(0,-0.5)" /><rect
     x="324.39999"
     y="89.599998"
     class="st2"
     width="2.9000001"
     height="23"
     clip-path="url(#SVGID_2_)"
     id="rect84"
     transform="translate(0,-0.5)" /><rect
     x="174.7"
     y="89.599998"
     class="st2"
     width="2.9000001"
     height="23"
     clip-path="url(#SVGID_2_)"
     id="rect86"
     transform="translate(0,-0.5)" /><rect
     x="181.8"
     y="89.599998"
     class="st2"
     width="2.9000001"
     height="23"
     clip-path="url(#SVGID_2_)"
     id="rect88"
     transform="translate(0,-0.5)" /><rect
     x="188.89999"
     y="89.599998"
     class="st2"
     width="2.9000001"
     height="23"
     clip-path="url(#SVGID_2_)"
     id="rect90"
     transform="translate(0,-0.5)" /><rect
     x="196.10001"
     y="89.599998"
     class="st2"
     width="2.9000001"
     height="23"
     clip-path="url(#SVGID_2_)"
     id="rect92"
     transform="translate(0,-0.5)" /><rect
     x="203.2"
     y="89.599998"
     class="st2"
     width="2.9000001"
     height="23"
     clip-path="url(#SVGID_2_)"
     id="rect94"
     transform="translate(0,-0.5)" /><rect
     x="210.3"
     y="89.599998"
     class="st2"
     width="2.9000001"
     height="23"
     clip-path="url(#SVGID_2_)"
     id="rect96"
     transform="translate(0,-0.5)" /><rect
     x="217.5"
     y="89.599998"
     class="st2"
     width="2.9000001"
     height="23"
     clip-path="url(#SVGID_2_)"
     id="rect98"
     transform="translate(0,-0.5)" /><rect
     x="224.60001"
     y="89.599998"
     class="st2"
     width="2.9000001"
     height="23"
     clip-path="url(#SVGID_2_)"
     id="rect100"
     transform="translate(0,-0.5)" /><rect
     x="231.7"
     y="89.599998"
     class="st2"
     width="2.9000001"
     height="23"
     clip-path="url(#SVGID_2_)"
     id="rect102"
     transform="translate(0,-0.5)" /><rect
     x="238.8"
     y="89.599998"
     class="st2"
     width="2.9000001"
     height="23"
     clip-path="url(#SVGID_2_)"
     id="rect104"
     transform="translate(0,-0.5)" /><rect
     x="246"
     y="89.599998"
     class="st2"
     width="2.9000001"
     height="23"
     clip-path="url(#SVGID_2_)"
     id="rect106"
     transform="translate(0,-0.5)" /><rect
     x="253.10001"
     y="89.599998"
     class="st2"
     width="2.9000001"
     height="23"
     clip-path="url(#SVGID_2_)"
     id="rect108"
     transform="translate(0,-0.5)" /><rect
     x="260.20001"
     y="89.599998"
     class="st2"
     width="2.9000001"
     height="23"
     clip-path="url(#SVGID_2_)"
     id="rect110"
     transform="translate(0,-0.5)" /><rect
     x="267.39999"
     y="89.599998"
     class="st2"
     width="2.9000001"
     height="23"
     clip-path="url(#SVGID_2_)"
     id="rect112"
     transform="translate(0,-0.5)" /><rect
     x="274.5"
     y="89.599998"
     class="st2"
     width="2.9000001"
     height="23"
     clip-path="url(#SVGID_2_)"
     id="rect114"
     transform="translate(0,-0.5)" /><rect
     x="281.60001"
     y="89.599998"
     class="st2"
     width="2.9000001"
     height="23"
     clip-path="url(#SVGID_2_)"
     id="rect116"
     transform="translate(0,-0.5)" /><rect
     x="288.79999"
     y="89.599998"
     class="st2"
     width="2.9000001"
     height="23"
     clip-path="url(#SVGID_2_)"
     id="rect118"
     transform="translate(0,-0.5)" /><rect
     x="295.89999"
     y="89.599998"
     class="st2"
     width="2.9000001"
     height="23"
     clip-path="url(#SVGID_2_)"
     id="rect120"
     transform="translate(0,-0.5)" /><rect
     x="303"
     y="89.599998"
     class="st2"
     width="2.9000001"
     height="23"
     clip-path="url(#SVGID_2_)"
     id="rect122"
     transform="translate(0,-0.5)" /><rect
     x="310.10001"
     y="89.599998"
     class="st2"
     width="2.9000001"
     height="23"
     clip-path="url(#SVGID_2_)"
     id="rect124"
     transform="translate(0,-0.5)" /><rect
     x="317.29999"
     y="89.599998"
     class="st2"
     width="2.9000001"
     height="23"
     clip-path="url(#SVGID_2_)"
     id="rect126"
     transform="translate(0,-0.5)" /></svg>
